<svg width="164" height="69" viewBox="0 0 164 69" fill="none" xmlns="http://www.w3.org/2000/svg">
<g clip-path="url(#clip0_3_62)">
<path d="M76.7118 51.505V34.8928H80.5651L89.69 45.9517H87.8697V34.8928H92.4558V51.505H88.6025L79.4776 40.446H81.2979V51.505H76.7118ZM94.3706 46.64V43.982H102.692V46.64H94.3706ZM98.5548 42.6056C97.6411 42.6056 96.8374 42.4394 96.1436 42.1072C95.4503 41.7591 94.8989 41.2845 94.4888 40.6833C94.0952 40.0821 93.8978 39.3939 93.8978 38.6186C93.8978 37.8592 94.0952 37.1868 94.4888 36.6014C94.8989 36.0003 95.4503 35.5335 96.1436 35.2013C96.8528 34.8532 97.6488 34.6792 98.5312 34.6792C99.4454 34.6792 100.249 34.8532 100.942 35.2013C101.636 35.5335 102.18 36.0003 102.574 36.6014C102.968 37.1868 103.165 37.8671 103.165 38.6424C103.165 39.4018 102.968 40.0821 102.574 40.6833C102.18 41.2845 101.636 41.7591 100.942 42.1072C100.249 42.4394 99.4531 42.6056 98.5548 42.6056ZM98.5312 40.3273C99.004 40.3273 99.3905 40.177 99.6895 39.8764C99.9892 39.5758 100.139 39.1645 100.139 38.6424C100.139 38.0887 99.9892 37.6694 99.6895 37.3846C99.3905 37.0998 99.004 36.9574 98.5312 36.9574C98.0743 36.9574 97.6884 37.1077 97.3728 37.4083C97.0738 37.6931 96.9237 38.1044 96.9237 38.6424C96.9237 39.1645 97.0738 39.5758 97.3728 39.8764C97.6884 40.177 98.0743 40.3273 98.5312 40.3273ZM107.752 51.505V36.5777L109.762 38.5237H104.679V34.8928H112.433V51.505H107.752ZM114.756 48.3249V45.2635L122.179 34.8928H127.025L119.815 45.2635L117.593 44.599H130.524V48.3249H114.756ZM123.503 51.505V48.3249L123.645 44.599V41.775H128.065V51.505H123.503ZM138.779 51.8372C137.36 51.8372 136.1 51.4971 134.997 50.8167C133.909 50.1364 133.05 49.1555 132.42 47.874C131.789 46.5925 131.474 45.0341 131.474 43.1989C131.474 41.3636 131.789 39.8052 132.42 38.5237C133.05 37.2422 133.909 36.2613 134.997 35.581C136.1 34.9006 137.36 34.5605 138.779 34.5605C140.181 34.5605 141.426 34.9006 142.514 35.581C143.617 36.2613 144.484 37.2422 145.114 38.5237C145.745 39.8052 146.06 41.3636 146.06 43.1989C146.06 45.0341 145.745 46.5925 145.114 47.874C144.484 49.1555 143.617 50.1364 142.514 50.8167C141.426 51.4971 140.181 51.8372 138.779 51.8372ZM138.779 47.9927C139.283 47.9927 139.724 47.8344 140.103 47.518C140.497 47.2016 140.804 46.6953 141.025 45.9992C141.245 45.2873 141.356 44.3538 141.356 43.1989C141.356 42.0281 141.245 41.0946 141.025 40.3985C140.804 39.7024 140.497 39.1961 140.103 38.8797C139.724 38.5633 139.283 38.4051 138.779 38.4051C138.275 38.4051 137.826 38.5633 137.431 38.8797C137.053 39.1961 136.746 39.7024 136.509 40.3985C136.289 41.0946 136.178 42.0281 136.178 43.1989C136.178 44.3538 136.289 45.2873 136.509 45.9992C136.746 46.6953 137.053 47.2016 137.431 47.518C137.826 47.8344 138.275 47.9927 138.779 47.9927ZM153.709 34.5605C155.269 34.5605 156.617 34.869 157.751 35.4861C158.902 36.1031 159.792 37.0207 160.423 38.2389C161.069 39.4414 161.392 40.9444 161.392 42.748C161.392 44.6781 161.014 46.3236 160.257 47.6842C159.516 49.029 158.484 50.0573 157.16 50.7693C155.852 51.4812 154.324 51.8372 152.574 51.8372C151.66 51.8372 150.778 51.7264 149.927 51.505C149.076 51.2993 148.343 51.0066 147.728 50.6269L149.43 47.257C149.903 47.5892 150.391 47.8187 150.896 47.9452C151.416 48.056 151.944 48.1113 152.48 48.1113C153.756 48.1113 154.773 47.7237 155.529 46.9485C156.286 46.1732 156.664 45.042 156.664 43.5548C156.664 43.2859 156.664 43.009 156.664 42.7242C156.664 42.4236 156.64 42.123 156.593 41.8224L157.751 42.7954C157.468 43.3808 157.097 43.8712 156.64 44.2668C156.183 44.6623 155.648 44.9629 155.033 45.1686C154.418 45.3743 153.717 45.4771 152.929 45.4771C151.889 45.4771 150.935 45.2635 150.069 44.8364C149.218 44.3933 148.532 43.7843 148.012 43.009C147.492 42.218 147.232 41.2924 147.232 40.2324C147.232 39.0774 147.523 38.0807 148.106 37.2422C148.689 36.3879 149.469 35.7313 150.447 35.2725C151.424 34.7978 152.511 34.5605 153.709 34.5605ZM154.016 37.9067C153.575 37.9067 153.189 37.9937 152.858 38.1677C152.527 38.3418 152.259 38.587 152.054 38.9034C151.865 39.204 151.771 39.5758 151.771 40.0188C151.771 40.6517 151.975 41.1579 152.385 41.5376C152.811 41.9174 153.362 42.1072 154.04 42.1072C154.497 42.1072 154.899 42.0202 155.246 41.8462C155.592 41.6721 155.86 41.4269 156.049 41.1105C156.238 40.7941 156.333 40.4223 156.333 39.9951C156.333 39.5838 156.238 39.2278 156.049 38.9272C155.86 38.6107 155.592 38.3655 155.246 38.1915C154.899 38.0016 154.489 37.9067 154.016 37.9067Z" fill="white"/>
<path d="M84.1701 26.3143L83.6559 26.8838V15.8129H85.9253V26.8838L85.3757 26.3143H91.0315L90.4819 26.8838V15.8129H92.7513V28.2721H76.8123V15.8129H79.0817V26.8838L78.5498 26.3143H84.1701ZM102.781 28.2721L99.3592 23.7156L101.168 22.5943L105.387 28.2721H102.781ZM95.9905 28.2721V18.7675H98.2067V28.2721H95.9905ZM97.5507 24.4631V22.6121H100.76V24.4631H97.5507ZM101.38 23.7868L99.306 23.5377L102.781 18.7675H105.157L101.38 23.7868ZM110.858 28.3967C109.889 28.3967 109.026 28.1891 108.27 27.7738C107.513 27.3466 106.916 26.7652 106.479 26.0295C106.041 25.2938 105.823 24.4572 105.823 23.5198C105.823 22.5706 106.041 21.7341 106.479 21.0102C106.916 20.2745 107.513 19.699 108.27 19.2838C109.026 18.8684 109.889 18.6607 110.858 18.6607C111.839 18.6607 112.708 18.8684 113.464 19.2838C114.233 19.699 114.83 20.2686 115.255 20.9924C115.692 21.7162 115.911 22.5587 115.911 23.5198C115.911 24.4572 115.692 25.2938 115.255 26.0295C114.83 26.7652 114.233 27.3466 113.464 27.7738C112.708 28.1891 111.839 28.3967 110.858 28.3967ZM110.858 26.4923C111.402 26.4923 111.886 26.3736 112.312 26.1363C112.737 25.899 113.068 25.5549 113.305 25.104C113.553 24.6531 113.677 24.125 113.677 23.5198C113.677 22.9028 113.553 22.3748 113.305 21.9358C113.068 21.4848 112.737 21.1407 112.312 20.9034C111.886 20.6661 111.408 20.5474 110.876 20.5474C110.332 20.5474 109.847 20.6661 109.422 20.9034C109.008 21.1407 108.677 21.4848 108.429 21.9358C108.181 22.3748 108.057 22.9028 108.057 23.5198C108.057 24.125 108.181 24.6531 108.429 25.104C108.677 25.5549 109.008 25.899 109.422 26.1363C109.847 26.3736 110.326 26.4923 110.858 26.4923ZM116.614 28.2543L116.72 26.3855C116.803 26.3973 116.88 26.4092 116.951 26.4211C117.022 26.4329 117.087 26.4389 117.146 26.4389C117.512 26.4389 117.796 26.3261 117.997 26.1007C118.198 25.8752 118.345 25.5727 118.44 25.193C118.546 24.8013 118.617 24.3682 118.653 23.8936C118.7 23.4071 118.735 22.9206 118.759 22.4341L118.919 18.7675H126.578V28.2721H124.362V20.049L124.876 20.6542H120.372L120.851 20.0312L120.727 22.5409C120.692 23.3833 120.621 24.1665 120.514 24.8903C120.42 25.6023 120.266 26.2253 120.053 26.7592C119.852 27.2932 119.569 27.7085 119.202 28.0052C118.848 28.3018 118.393 28.4501 117.837 28.4501C117.66 28.4501 117.465 28.4323 117.252 28.3967C117.051 28.3611 116.838 28.3137 116.614 28.2543ZM135.307 28.2721V26.3499L135.183 25.9404V22.5765C135.183 21.9238 134.988 21.4195 134.598 21.0636C134.208 20.6957 133.617 20.5118 132.825 20.5118C132.293 20.5118 131.767 20.5949 131.247 20.761C130.738 20.9271 130.307 21.1585 129.952 21.4551L129.084 19.8355C129.592 19.4439 130.195 19.1532 130.892 18.9634C131.601 18.7616 132.334 18.6607 133.091 18.6607C134.462 18.6607 135.52 18.993 136.264 19.6575C137.021 20.3101 137.399 21.3246 137.399 22.7011V28.2721H135.307ZM132.328 28.3967C131.619 28.3967 130.998 28.2781 130.467 28.0408C129.935 27.7916 129.521 27.4534 129.225 27.0262C128.942 26.5872 128.8 26.0948 128.8 25.5489C128.8 25.0149 128.924 24.5343 129.172 24.1072C129.432 23.6801 129.852 23.3419 130.431 23.0927C131.01 22.8435 131.779 22.7189 132.736 22.7189H135.484V24.1962H132.896C132.139 24.1962 131.631 24.3208 131.371 24.57C131.111 24.8073 130.981 25.104 130.981 25.4599C130.981 25.8634 131.14 26.1838 131.459 26.4211C131.779 26.6584 132.222 26.777 132.789 26.777C133.333 26.777 133.817 26.6525 134.243 26.4033C134.68 26.1541 134.994 25.7862 135.183 25.2997L135.555 26.6347C135.342 27.1923 134.958 27.6255 134.403 27.934C133.859 28.2425 133.167 28.3967 132.328 28.3967Z" fill="white"/>
<path d="M0 55.2121C0 53.776 1.1597 52.6118 2.59026 52.6118H37.7696V57.8124H2.59026C1.1597 57.8124 0 56.6482 0 55.2121Z" fill="white"/>
<path d="M25.2673 0C26.6828 0 27.8302 1.15193 27.8302 2.5729C27.8302 3.99388 26.6828 5.14581 25.2673 5.14581H7.52982C6.23235 5.14581 5.18052 6.20169 5.18052 7.50427V25.3988C5.18052 26.8349 4.02082 27.9991 2.59026 27.9991C1.1597 27.9991 0 26.8349 0 25.3988V4.83786C0 2.16598 2.15758 0 4.81909 0H25.2673Z" fill="white"/>
<path d="M5.18052 32.4741C5.18052 31.038 4.02082 29.8738 2.59026 29.8738C1.1597 29.8738 0 31.038 0 32.4741V48.1367C0 49.5729 1.1597 50.7371 2.59026 50.7371C4.02082 50.7371 5.18052 49.5729 5.18052 48.1367V32.4741Z" fill="white"/>
<path d="M29.6976 2.57197C29.6976 1.15152 30.8447 0 32.2596 0H47.9668C49.388 0 50.5402 1.15661 50.5402 2.58336C50.5402 4.01158 49.3858 5.16879 47.9631 5.16674L32.2559 5.14394C30.8424 5.14189 29.6976 3.99098 29.6976 2.57197Z" fill="white"/>
<path d="M52.4076 2.53988C52.4076 1.13715 53.5403 0 54.9376 0C56.3349 0 57.4676 1.13714 57.4676 2.53988V37.7353H52.4076V2.53988Z" fill="white"/>
<path d="M49.9679 39.61H64.0941C66.7554 39.61 68.9131 41.776 68.9131 44.4479V64.1623C68.9131 66.8339 66.7554 69 64.0941 69H44.4561C41.7946 69 39.637 66.8339 39.637 64.1623V44.4479C39.637 41.776 41.7946 39.61 44.4561 39.61H49.9679V44.8107H47.8897C46.1929 44.8107 44.8175 46.1915 44.8175 47.8948V61.6829C44.8175 62.8517 45.7615 63.7992 46.9258 63.7992H61.6238C62.7886 63.7992 63.7324 62.8517 63.7324 61.6829V47.4715C63.7324 46.0019 62.5457 44.8107 61.0818 44.8107H49.9679V39.61Z" fill="white"/>
</g>
<defs>
<clipPath id="clip0_3_62">
<rect width="164" height="69" fill="white"/>
</clipPath>
</defs>
</svg>
